<?xml version="1.0" encoding="iso-8859-1"?>
<!-- Generator: Adobe Illustrator 19.0.0, SVG Export Plug-In . SVG Version: 6.00 Build 0)  -->
<svg version="1.1" id="Capa_1" xmlns="http://www.w3.org/2000/svg" xmlns:xlink="http://www.w3.org/1999/xlink" x="0px" y="0px"
	 viewBox="0 0 470 470" style="enable-background:new 0 0 470 470;" xml:space="preserve">
<g>
	<path d="M130.447,126.5h209.106c4.142,0,7.5-3.358,7.5-7.5c0-27.979-22.762-50.741-50.741-50.741c-1.747,0-3.491,0.09-5.225,0.268
		C282.289,45.533,260.126,30,235,30s-47.289,15.533-56.087,38.527c-1.734-0.178-3.479-0.268-5.225-0.268
		c-27.979,0-50.741,22.762-50.741,50.741C122.947,123.142,126.305,126.5,130.447,126.5z M173.687,83.259c2.9,0,5.79,0.35,8.589,1.04
		c3.996,0.987,8.044-1.437,9.062-5.426C196.431,58.929,214.386,45,235,45s38.569,13.929,43.662,33.873
		c1.019,3.991,5.069,6.415,9.062,5.426c2.799-0.69,5.689-1.04,8.589-1.04c17.136,0,31.494,12.122,34.949,28.241H138.738
		C142.194,95.381,156.552,83.259,173.687,83.259z"/>
	<path d="M401.17,68.83C356.785,24.444,297.771,0,235,0S113.215,24.444,68.83,68.83C24.444,113.215,0,172.229,0,235
		s24.444,121.785,68.83,166.17C113.215,445.556,172.229,470,235,470s121.785-24.444,166.17-68.83
		C445.556,356.785,470,297.771,470,235S445.556,113.215,401.17,68.83z M235,455c-121.309,0-220-98.691-220-220S113.691,15,235,15
		s220,98.691,220,220S356.309,455,235,455z"/>
	<circle cx="150.947" cy="367.329" r="7.5"/>
	<circle cx="132.947" cy="337.329" r="7.5"/>
	<circle cx="350.156" cy="301.829" r="7.5"/>
	<path d="M423.008,309.086l-92.186-159.659c-1.34-2.321-3.816-3.75-6.495-3.75c-2.68,0-5.155,1.43-6.495,3.75l-72.006,124.719
		c-2.071,3.587-0.842,8.174,2.745,10.245c3.585,2.071,8.174,0.842,10.245-2.745l16.119-27.919l19.1,14.131
		c2.651,1.961,6.271,1.961,8.922,0l21.368-15.81l21.371,15.81c1.325,0.98,2.893,1.471,4.46,1.471s3.135-0.49,4.46-1.471
		l19.106-14.134l34.391,59.564c-7.445,16.398-17.192,31.657-29.008,45.402c-2.7,3.141-2.343,7.876,0.798,10.577
		c1.416,1.217,3.155,1.813,4.886,1.813c2.11,0,4.208-0.886,5.691-2.611c13.625-15.851,24.701-33.57,32.921-52.667
		C424.338,313.626,424.192,311.137,423.008,309.086z M350.156,252.5l-21.372-15.81c-2.65-1.961-6.271-1.961-8.921,0l-21.367,15.81
		l-16.012-11.847l41.844-72.476l41.846,72.474L350.156,252.5z"/>
	<path d="M358.688,379.102C324.256,408.7,280.33,425,235,425c-74.732,0-142.272-43.719-173.114-111.711l34.392-59.563l19.103,14.133
		c2.651,1.961,6.271,1.961,8.922,0l21.368-15.81l21.371,15.81c1.325,0.98,2.893,1.471,4.46,1.471c1.568,0,3.135-0.49,4.46-1.471
		l19.102-14.132l83.622,144.837c2.071,3.587,6.658,4.817,10.245,2.745c3.587-2.071,4.816-6.658,2.745-10.245L152.168,149.427
		c-1.34-2.32-3.815-3.75-6.495-3.75c-2.679,0-5.155,1.43-6.495,3.75L46.992,309.086c-1.184,2.051-1.33,4.54-0.394,6.715
		C79.075,391.25,153.027,440,235,440c48.916,0,96.315-17.587,133.466-49.523c3.141-2.7,3.499-7.436,0.798-10.577
		C366.563,376.76,361.829,376.403,358.688,379.102z M145.673,168.177l41.844,72.476L171.502,252.5l-21.372-15.81
		c-2.65-1.961-6.271-1.961-8.921,0l-21.368,15.81l-16.015-11.849L145.673,168.177z"/>
</g>
<g>
</g>
<g>
</g>
<g>
</g>
<g>
</g>
<g>
</g>
<g>
</g>
<g>
</g>
<g>
</g>
<g>
</g>
<g>
</g>
<g>
</g>
<g>
</g>
<g>
</g>
<g>
</g>
<g>
</g>
</svg>
